<svg xmlns="http://www.w3.org/2000/svg" aria-hidden="true" style="position:absolute;width:0;height:0;overflow:hidden"><defs><symbol id="bg-pattern-quotation" viewBox="0 0 33 32"><path d="M32.627 32V18.738h-6.239c0-1.842.216-3.508.649-4.999s1.073-2.914 1.922-4.27c.848-1.357 2.071-2.487 3.668-3.391V0c-3.061 1.34-5.557 3.098-7.487 5.275s-3.361 4.563-4.292 7.159c-.932 2.595-1.398 6.372-1.398 11.328V32h13.176zm-19.451 0V18.738H6.937c0-1.842.216-3.508.649-4.999s1.073-2.914 1.922-4.27c.848-1.357 2.071-2.487 3.668-3.391V0c-3.028 1.34-5.515 3.098-7.462 5.275s-3.386 4.563-4.317 7.159C.465 15.029-.001 18.806-.001 23.762V32h13.176z"/></symbol></defs></svg>